<mxfile host="Electron" modified="2024-06-09T02:52:07.672Z" agent="Mozilla/5.0 (Windows NT 10.0; Win64; x64) AppleWebKit/537.36 (KHTML, like Gecko) draw.io/24.5.1 Chrome/124.0.6367.207 Electron/30.0.6 Safari/537.36" etag="N3euexfTLw2Z6cCd6B83" version="24.5.1" type="device">
  <diagram name="Page-1" id="AvLsPoYU9DnG-tsBDQSp">
    <mxGraphModel dx="872" dy="518" grid="1" gridSize="10" guides="1" tooltips="1" connect="1" arrows="1" fold="1" page="1" pageScale="1" pageWidth="827" pageHeight="400" math="0" shadow="0">
      <root>
        <mxCell id="0" />
        <mxCell id="1" parent="0" />
        <mxCell id="ogoglfJcI44DMrGjK-La-22" style="edgeStyle=orthogonalEdgeStyle;rounded=0;orthogonalLoop=1;jettySize=auto;html=1;entryX=0.5;entryY=0;entryDx=0;entryDy=0;" parent="1" source="ogoglfJcI44DMrGjK-La-11" target="ogoglfJcI44DMrGjK-La-20" edge="1">
          <mxGeometry relative="1" as="geometry" />
        </mxCell>
        <mxCell id="ogoglfJcI44DMrGjK-La-11" value="Input" style="rounded=0;whiteSpace=wrap;html=1;" parent="1" vertex="1">
          <mxGeometry x="310" y="10" width="120" height="60" as="geometry" />
        </mxCell>
        <mxCell id="ogoglfJcI44DMrGjK-La-12" style="edgeStyle=orthogonalEdgeStyle;rounded=0;orthogonalLoop=1;jettySize=auto;html=1;entryX=0.5;entryY=0;entryDx=0;entryDy=0;" parent="1" source="ogoglfJcI44DMrGjK-La-13" target="ogoglfJcI44DMrGjK-La-14" edge="1">
          <mxGeometry relative="1" as="geometry" />
        </mxCell>
        <mxCell id="ogoglfJcI44DMrGjK-La-13" value="DFT" style="rounded=0;whiteSpace=wrap;html=1;" parent="1" vertex="1">
          <mxGeometry x="310" y="190" width="120" height="60" as="geometry" />
        </mxCell>
        <mxCell id="1DsENaseQOK4BPF0uJGO-2" style="edgeStyle=orthogonalEdgeStyle;rounded=0;orthogonalLoop=1;jettySize=auto;html=1;entryX=0;entryY=0.5;entryDx=0;entryDy=0;" edge="1" parent="1" source="ogoglfJcI44DMrGjK-La-14" target="1DsENaseQOK4BPF0uJGO-1">
          <mxGeometry relative="1" as="geometry" />
        </mxCell>
        <mxCell id="ogoglfJcI44DMrGjK-La-14" value="LTV-IIR" style="rounded=0;whiteSpace=wrap;html=1;" parent="1" vertex="1">
          <mxGeometry x="310" y="280" width="120" height="60" as="geometry" />
        </mxCell>
        <mxCell id="ogoglfJcI44DMrGjK-La-21" style="edgeStyle=orthogonalEdgeStyle;rounded=0;orthogonalLoop=1;jettySize=auto;html=1;entryX=0.5;entryY=0;entryDx=0;entryDy=0;" parent="1" source="ogoglfJcI44DMrGjK-La-20" target="ogoglfJcI44DMrGjK-La-13" edge="1">
          <mxGeometry relative="1" as="geometry" />
        </mxCell>
        <mxCell id="ogoglfJcI44DMrGjK-La-20" value="Windowing&lt;div&gt;(Optional)&lt;/div&gt;" style="rounded=0;whiteSpace=wrap;html=1;" parent="1" vertex="1">
          <mxGeometry x="310" y="100" width="120" height="60" as="geometry" />
        </mxCell>
        <mxCell id="1DsENaseQOK4BPF0uJGO-4" style="edgeStyle=orthogonalEdgeStyle;rounded=0;orthogonalLoop=1;jettySize=auto;html=1;entryX=0.5;entryY=1;entryDx=0;entryDy=0;" edge="1" parent="1" source="1DsENaseQOK4BPF0uJGO-1" target="1DsENaseQOK4BPF0uJGO-3">
          <mxGeometry relative="1" as="geometry" />
        </mxCell>
        <mxCell id="1DsENaseQOK4BPF0uJGO-1" value="Synthesis matrix" style="rounded=0;whiteSpace=wrap;html=1;" vertex="1" parent="1">
          <mxGeometry x="490" y="280" width="120" height="60" as="geometry" />
        </mxCell>
        <mxCell id="1DsENaseQOK4BPF0uJGO-6" style="edgeStyle=orthogonalEdgeStyle;rounded=0;orthogonalLoop=1;jettySize=auto;html=1;entryX=0.5;entryY=1;entryDx=0;entryDy=0;" edge="1" parent="1" source="1DsENaseQOK4BPF0uJGO-3" target="1DsENaseQOK4BPF0uJGO-5">
          <mxGeometry relative="1" as="geometry" />
        </mxCell>
        <mxCell id="1DsENaseQOK4BPF0uJGO-3" value="Inverse DFT" style="rounded=0;whiteSpace=wrap;html=1;" vertex="1" parent="1">
          <mxGeometry x="490" y="190" width="120" height="60" as="geometry" />
        </mxCell>
        <mxCell id="1DsENaseQOK4BPF0uJGO-5" value="Output" style="rounded=0;whiteSpace=wrap;html=1;" vertex="1" parent="1">
          <mxGeometry x="490" y="100" width="120" height="60" as="geometry" />
        </mxCell>
      </root>
    </mxGraphModel>
  </diagram>
</mxfile>
